<?xml version="1.0" standalone="no"?>
<!DOCTYPE svg PUBLIC "-//W3C//DTD SVG 20010904//EN"
 "http://www.w3.org/TR/2001/REC-SVG-20010904/DTD/svg10.dtd">
<svg version="1.0" xmlns="http://www.w3.org/2000/svg"
 width="30" height="30" viewBox="0 0 800 800"
 preserveAspectRatio="xMidYMid meet">

<g transform="translate(0.000000,800.000000) scale(0.100000,-0.100000)"
fill="#000000" stroke="none">
<path d="M6603 6610 c-22 -5 -58 -18 -80 -29 -21 -11 -407 -308 -858 -660
-450 -352 -822 -638 -826 -635 -4 2 -145 179 -313 394 -169 214 -324 403 -344
420 -89 74 -233 116 -360 106 -167 -13 -286 -64 -462 -197 l-120 -91 60 -76
c387 -498 2178 -2766 2185 -2769 18 -6 233 175 289 243 63 76 118 182 141 269
34 134 10 303 -57 396 -17 24 -161 209 -320 411 -158 202 -288 369 -288 371 0
3 365 290 812 639 446 348 827 648 846 667 87 86 113 238 61 351 -36 78 -81
125 -152 160 -68 33 -147 44 -214 30z" fill="black" fill-opacity="0.5413"/>
<path d="M2998 5760 c-143 -74 -186 -90 -952 -351 -385 -132 -718 -251 -739
-265 -72 -47 -74 -107 -7 -196 22 -29 606 -651 1299 -1383 692 -731 1294
-1371 1337 -1420 44 -50 121 -139 172 -199 52 -59 108 -116 125 -127 59 -36
93 -14 230 156 298 368 629 768 672 810 27 28 85 77 128 109 43 33 80 68 83
81 8 32 -21 83 -113 200 -448 568 -1846 2345 -1940 2466 -67 86 -129 159 -138
163 -34 13 -62 4 -157 -44z" fill="black" fill-opacity="0.5413"/>
<path d="M1179 4103 c-57 -35 -77 -108 -54 -198 55 -210 295 -338 399 -214 34
40 42 103 21 176 -40 143 -166 253 -287 253 -31 0 -64 -7 -79 -17z"/>
<path d="M2092 3409 c-219 -36 -396 -271 -338 -447 76 -227 450 -171 590 88
40 74 48 187 18 247 -47 92 -146 132 -270 112z" fill="black" fill-opacity="0.5413"/>
<path d="M1920 2459 c-123 -18 -249 -86 -335 -181 l-51 -55 -60 36 c-155 94
-321 96 -406 5 -108 -115 -79 -352 70 -571 135 -198 379 -337 535 -303 50 10
127 54 127 71 0 4 46 8 103 8 171 -1 306 58 418 180 288 314 125 778 -286 814
-33 2 -85 1 -115 -4z" fill="black" fill-opacity="0.5413" />
</g>
</svg>
